<svg width="21" height="21" viewBox="0 0 21 21" fill="none" xmlns="http://www.w3.org/2000/svg">
<path d="M19.8015 11.3054L20.9875 4.80214C21.0082 4.69044 21.0032 4.5755 20.9729 4.46603C20.9425 4.35655 20.8877 4.25542 20.8125 4.17028C20.7406 4.08238 20.6502 4.0115 20.5477 3.96276C20.4451 3.91401 20.3331 3.88861 20.2195 3.88837H4.53967L4.06335 1.27344C3.99755 0.916435 3.80895 0.59369 3.53022 0.361117C3.25148 0.128543 2.90018 0.0007941 2.53716 0H0.777674C0.571422 0 0.373618 0.0819332 0.227775 0.227775C0.0819332 0.373618 0 0.571422 0 0.777674C0 0.983926 0.0819332 1.18173 0.227775 1.32757C0.373618 1.47341 0.571422 1.55535 0.777674 1.55535H2.53716L5.2007 16.2339C4.82094 16.5684 4.54195 17.0022 4.39507 17.4865C4.24819 17.9707 4.23923 18.4864 4.3692 18.9755C4.49917 19.4646 4.76291 19.9077 5.13082 20.2552C5.49872 20.6027 5.95622 20.8408 6.45193 20.9426C6.94764 21.0445 7.46193 21.0061 7.93704 20.8318C8.41216 20.6576 8.82928 20.3543 9.14157 19.9561C9.45386 19.5579 9.64895 19.0805 9.70493 18.5775C9.7609 18.0746 9.67555 17.566 9.45846 17.1088H14.6494C14.3967 17.6417 14.3238 18.2422 14.4419 18.8201C14.5599 19.3979 14.8624 19.9218 15.3039 20.3128C15.7454 20.7039 16.3019 20.941 16.8898 20.9884C17.4777 21.0358 18.065 20.891 18.5635 20.5758C19.0619 20.2605 19.4445 19.7919 19.6536 19.2405C19.8628 18.689 19.8871 18.0846 19.7231 17.5181C19.559 16.9516 19.2153 16.4537 18.7439 16.0994C18.2724 15.7451 17.6986 15.5535 17.1088 15.5535H6.65883L6.23111 13.2205H17.5074C18.0534 13.2202 18.5821 13.0284 19.0013 12.6785C19.4205 12.3285 19.7037 11.8427 19.8015 11.3054ZM8.16558 18.2753C8.16558 18.5061 8.09716 18.7316 7.96899 18.9234C7.84081 19.1152 7.65862 19.2648 7.44547 19.3531C7.23232 19.4413 6.99777 19.4644 6.77149 19.4194C6.54521 19.3744 6.33736 19.2633 6.17422 19.1002C6.01108 18.937 5.89998 18.7292 5.85497 18.5029C5.80996 18.2766 5.83306 18.0421 5.92135 17.8289C6.00964 17.6158 6.15916 17.4336 6.35099 17.3054C6.54282 17.1772 6.76835 17.1088 6.99907 17.1088C7.30844 17.1088 7.60515 17.2317 7.82391 17.4505C8.04268 17.6693 8.16558 17.966 8.16558 18.2753ZM18.2753 18.2753C18.2753 18.5061 18.2069 18.7316 18.0787 18.9234C17.9506 19.1152 17.7684 19.2648 17.5552 19.3531C17.3421 19.4413 17.1075 19.4644 16.8813 19.4194C16.655 19.3744 16.4471 19.2633 16.284 19.1002C16.1208 18.937 16.0097 18.7292 15.9647 18.5029C15.9197 18.2766 15.9428 18.0421 16.0311 17.8289C16.1194 17.6158 16.2689 17.4336 16.4608 17.3054C16.6526 17.1772 16.8781 17.1088 17.1088 17.1088C17.4182 17.1088 17.7149 17.2317 17.9337 17.4505C18.1524 17.6693 18.2753 17.966 18.2753 18.2753ZM4.82158 5.44372H19.2863L18.2753 11.0235C18.2433 11.2037 18.1487 11.3669 18.0083 11.4842C17.8678 11.6016 17.6904 11.6656 17.5074 11.6651H5.94921L4.82158 5.44372Z" fill="black"/>
</svg>
