<svg width="20" height="22" viewBox="0 0 20 22" fill="none" xmlns="http://www.w3.org/2000/svg">
<path d="M6.09376 2.09716H5.88817C6.00125 2.09716 6.09376 2.00464 6.09376 1.89156V2.09716H13.9063V1.89156C13.9063 2.00464 13.9988 2.09716 14.1119 2.09716H13.9063V3.94748H15.7566V1.89156C15.7566 0.984388 15.019 0.246826 14.1119 0.246826H5.88817C4.981 0.246826 4.24343 0.984388 4.24343 1.89156V3.94748H6.09376V2.09716ZM19.0461 3.94748H0.95396C0.499088 3.94748 0.131592 4.31498 0.131592 4.76985V5.59222C0.131592 5.7053 0.224108 5.79781 0.337184 5.79781H1.8894L2.52417 19.2384C2.56529 20.1147 3.29 20.806 4.16634 20.806H15.8337C16.7126 20.806 17.4347 20.1173 17.4759 19.2384L18.1106 5.79781H19.6628C19.7759 5.79781 19.8684 5.7053 19.8684 5.59222V4.76985C19.8684 4.31498 19.5009 3.94748 19.0461 3.94748ZM15.6358 18.9557H4.36422L3.7423 5.79781H16.2577L15.6358 18.9557Z" fill="#000000"/>
</svg>
