<svg width="194" height="24" viewBox="0 0 194 24" fill="none" xmlns="http://www.w3.org/2000/svg">
<path d="M6.47727 19H1.10085V4.45455H6.47017C7.95218 4.45455 9.22822 4.74574 10.2983 5.32812C11.3731 5.90578 12.2017 6.73911 12.7841 7.82812C13.3665 8.91241 13.6577 10.2098 13.6577 11.7202C13.6577 13.2353 13.3665 14.5374 12.7841 15.6264C12.2064 16.7154 11.3802 17.5511 10.3054 18.1335C9.23059 18.7112 7.95455 19 6.47727 19ZM4.61648 16.0028H6.34233C7.15672 16.0028 7.84564 15.8655 8.40909 15.5909C8.97727 15.3116 9.40578 14.8594 9.6946 14.2344C9.98816 13.6046 10.1349 12.7666 10.1349 11.7202C10.1349 10.6738 9.98816 9.84044 9.6946 9.22017C9.40104 8.59517 8.9678 8.14536 8.39489 7.87074C7.8267 7.59138 7.12595 7.4517 6.29261 7.4517H4.61648V16.0028ZM29.4389 11.7273C29.4389 13.3277 29.1312 14.6842 28.5156 15.7969C27.9001 16.9096 27.0668 17.7547 26.0156 18.3324C24.9692 18.91 23.795 19.1989 22.4929 19.1989C21.1861 19.1989 20.0095 18.9077 18.9631 18.3253C17.9167 17.7429 17.0857 16.8977 16.4702 15.7898C15.8594 14.6771 15.554 13.3229 15.554 11.7273C15.554 10.1269 15.8594 8.77036 16.4702 7.65767C17.0857 6.54498 17.9167 5.69981 18.9631 5.12216C20.0095 4.54451 21.1861 4.25568 22.4929 4.25568C23.795 4.25568 24.9692 4.54451 26.0156 5.12216C27.0668 5.69981 27.9001 6.54498 28.5156 7.65767C29.1312 8.77036 29.4389 10.1269 29.4389 11.7273ZM25.8452 11.7273C25.8452 10.7803 25.7102 9.98011 25.4403 9.3267C25.1752 8.67329 24.7917 8.1785 24.2898 7.84233C23.7926 7.50615 23.1937 7.33807 22.4929 7.33807C21.7969 7.33807 21.1979 7.50615 20.696 7.84233C20.1941 8.1785 19.8082 8.67329 19.5384 9.3267C19.2732 9.98011 19.1406 10.7803 19.1406 11.7273C19.1406 12.6742 19.2732 13.4744 19.5384 14.1278C19.8082 14.7812 20.1941 15.276 20.696 15.6122C21.1979 15.9484 21.7969 16.1165 22.4929 16.1165C23.1937 16.1165 23.7926 15.9484 24.2898 15.6122C24.7917 15.276 25.1752 14.7812 25.4403 14.1278C25.7102 13.4744 25.8452 12.6742 25.8452 11.7273ZM43.8707 4.45455V19H40.8878L35.0994 10.6051H35.0071V19H31.4915V4.45455H34.517L40.2415 12.8352H40.3622V4.45455H43.8707ZM50.3782 19V4.45455H53.8938V16.1449H59.945V19H50.3782ZM70.5646 4.45455H74.0732V13.8366C74.0732 14.9209 73.8151 15.8655 73.299 16.6705C72.7829 17.4706 72.0632 18.0909 71.1399 18.5312C70.2166 18.9669 69.1442 19.1847 67.9226 19.1847C66.6868 19.1847 65.6072 18.9669 64.6839 18.5312C63.7607 18.0909 63.0433 17.4706 62.532 16.6705C62.0206 15.8655 61.7649 14.9209 61.7649 13.8366V4.45455H65.2805V13.5312C65.2805 14.0331 65.3894 14.4806 65.6072 14.8736C65.8298 15.2666 66.1399 15.5743 66.5376 15.7969C66.9354 16.0194 67.397 16.1307 67.9226 16.1307C68.4482 16.1307 68.9074 16.0194 69.3004 15.7969C69.6982 15.5743 70.0083 15.2666 70.2308 14.8736C70.4534 14.4806 70.5646 14.0331 70.5646 13.5312V4.45455ZM89.4798 9.72443H85.9286C85.8813 9.35985 85.7842 9.03078 85.6374 8.73722C85.4906 8.44366 85.2965 8.19271 85.055 7.98438C84.8136 7.77604 84.5271 7.61742 84.1957 7.50852C83.869 7.39489 83.5067 7.33807 83.109 7.33807C82.4035 7.33807 81.7951 7.51089 81.2837 7.85653C80.7771 8.20218 80.3865 8.7017 80.1119 9.35511C79.842 10.0085 79.707 10.7992 79.707 11.7273C79.707 12.6932 79.8443 13.5028 80.119 14.1562C80.3983 14.8049 80.7889 15.295 81.2908 15.6264C81.7975 15.9531 82.3964 16.1165 83.0877 16.1165C83.476 16.1165 83.8287 16.0668 84.146 15.9673C84.4679 15.8679 84.7496 15.7235 84.9911 15.5341C85.2373 15.34 85.4386 15.1056 85.5948 14.831C85.7558 14.5516 85.8671 14.2367 85.9286 13.8864L89.4798 13.9077C89.4182 14.5516 89.2312 15.1861 88.9187 15.8111C88.6109 16.4361 88.1871 17.0066 87.6474 17.5227C87.1076 18.0341 86.4495 18.4413 85.6729 18.7443C84.9012 19.0473 84.0157 19.1989 83.0167 19.1989C81.7004 19.1989 80.5214 18.91 79.4798 18.3324C78.4428 17.75 77.6237 16.9025 77.0224 15.7898C76.421 14.6771 76.1204 13.3229 76.1204 11.7273C76.1204 10.1269 76.4258 8.77036 77.0366 7.65767C77.6474 6.54498 78.4736 5.69981 79.5153 5.12216C80.5569 4.54451 81.7241 4.25568 83.0167 4.25568C83.8974 4.25568 84.7118 4.37879 85.4599 4.625C86.208 4.86648 86.8661 5.22159 87.4343 5.69034C88.0025 6.15436 88.4641 6.72491 88.8192 7.40199C89.1744 8.07907 89.3945 8.85322 89.4798 9.72443ZM91.4915 19V4.45455H95.0071V10.2926H100.739V4.45455H104.247V19H100.739V13.1548H95.0071V19H91.4915ZM120.181 11.7273C120.181 13.3277 119.873 14.6842 119.258 15.7969C118.642 16.9096 117.809 17.7547 116.758 18.3324C115.711 18.91 114.537 19.1989 113.235 19.1989C111.928 19.1989 110.752 18.9077 109.705 18.3253C108.659 17.7429 107.828 16.8977 107.212 15.7898C106.602 14.6771 106.296 13.3229 106.296 11.7273C106.296 10.1269 106.602 8.77036 107.212 7.65767C107.828 6.54498 108.659 5.69981 109.705 5.12216C110.752 4.54451 111.928 4.25568 113.235 4.25568C114.537 4.25568 115.711 4.54451 116.758 5.12216C117.809 5.69981 118.642 6.54498 119.258 7.65767C119.873 8.77036 120.181 10.1269 120.181 11.7273ZM116.587 11.7273C116.587 10.7803 116.452 9.98011 116.183 9.3267C115.917 8.67329 115.534 8.1785 115.032 7.84233C114.535 7.50615 113.936 7.33807 113.235 7.33807C112.539 7.33807 111.94 7.50615 111.438 7.84233C110.936 8.1785 110.55 8.67329 110.281 9.3267C110.015 9.98011 109.883 10.7803 109.883 11.7273C109.883 12.6742 110.015 13.4744 110.281 14.1278C110.55 14.7812 110.936 15.276 111.438 15.6122C111.94 15.9484 112.539 16.1165 113.235 16.1165C113.936 16.1165 114.535 15.9484 115.032 15.6122C115.534 15.276 115.917 14.7812 116.183 14.1278C116.452 13.4744 116.587 12.6742 116.587 11.7273Z" fill="#E8E9EC"/>
</svg>
