<svg width="115" height="16" viewBox="0 0 115 16" fill="none" xmlns="http://www.w3.org/2000/svg">
<path d="M5.47727 15H0.100852V0.454545H5.47017C6.95218 0.454545 8.22822 0.745738 9.2983 1.32812C10.3731 1.90578 11.2017 2.73911 11.7841 3.82812C12.3665 4.91241 12.6577 6.20975 12.6577 7.72017C12.6577 9.23532 12.3665 10.5374 11.7841 11.6264C11.2064 12.7154 10.3802 13.5511 9.3054 14.1335C8.23059 14.7112 6.95455 15 5.47727 15ZM3.61648 12.0028H5.34233C6.15672 12.0028 6.84564 11.8655 7.40909 11.5909C7.97727 11.3116 8.40578 10.8594 8.6946 10.2344C8.98816 9.60464 9.13494 8.76657 9.13494 7.72017C9.13494 6.67377 8.98816 5.84044 8.6946 5.22017C8.40104 4.59517 7.9678 4.14536 7.39489 3.87074C6.8267 3.59138 6.12595 3.4517 5.29261 3.4517H3.61648V12.0028ZM27.8389 7.72727C27.8389 9.32765 27.5312 10.6842 26.9156 11.7969C26.3001 12.9096 25.4668 13.7547 24.4156 14.3324C23.3692 14.91 22.195 15.1989 20.8929 15.1989C19.5861 15.1989 18.4095 14.9077 17.3631 14.3253C16.3167 13.7429 15.4857 12.8977 14.8702 11.7898C14.2594 10.6771 13.954 9.32292 13.954 7.72727C13.954 6.12689 14.2594 4.77036 14.8702 3.65767C15.4857 2.54498 16.3167 1.69981 17.3631 1.12216C18.4095 0.544507 19.5861 0.255681 20.8929 0.255681C22.195 0.255681 23.3692 0.544507 24.4156 1.12216C25.4668 1.69981 26.3001 2.54498 26.9156 3.65767C27.5312 4.77036 27.8389 6.12689 27.8389 7.72727ZM24.2452 7.72727C24.2452 6.7803 24.1102 5.98011 23.8403 5.3267C23.5752 4.67329 23.1917 4.1785 22.6898 3.84233C22.1926 3.50615 21.5937 3.33807 20.8929 3.33807C20.1969 3.33807 19.5979 3.50615 19.096 3.84233C18.5941 4.1785 18.2082 4.67329 17.9384 5.3267C17.6732 5.98011 17.5406 6.7803 17.5406 7.72727C17.5406 8.67424 17.6732 9.47443 17.9384 10.1278C18.2082 10.7812 18.5941 11.276 19.096 11.6122C19.5979 11.9484 20.1969 12.1165 20.8929 12.1165C21.5937 12.1165 22.1926 11.9484 22.6898 11.6122C23.1917 11.276 23.5752 10.7812 23.8403 10.1278C24.1102 9.47443 24.2452 8.67424 24.2452 7.72727ZM41.6707 0.454545V15H38.6878L32.8994 6.60511H32.8071V15H29.2915V0.454545H32.317L38.0415 8.83523H38.1622V0.454545H41.6707ZM46.9782 15V0.454545H50.4938V12.1449H56.545V15H46.9782ZM66.5646 0.454545H70.0732V9.83665C70.0732 10.9209 69.8151 11.8655 69.299 12.6705C68.7829 13.4706 68.0632 14.0909 67.1399 14.5312C66.2166 14.9669 65.1442 15.1847 63.9226 15.1847C62.6868 15.1847 61.6072 14.9669 60.6839 14.5312C59.7607 14.0909 59.0433 13.4706 58.532 12.6705C58.0206 11.8655 57.7649 10.9209 57.7649 9.83665V0.454545H61.2805V9.53125C61.2805 10.0331 61.3894 10.4806 61.6072 10.8736C61.8298 11.2666 62.1399 11.5743 62.5376 11.7969C62.9354 12.0194 63.397 12.1307 63.9226 12.1307C64.4482 12.1307 64.9074 12.0194 65.3004 11.7969C65.6982 11.5743 66.0083 11.2666 66.2308 10.8736C66.4534 10.4806 66.5646 10.0331 66.5646 9.53125V0.454545ZM84.8798 5.72443H81.3286C81.2813 5.35985 81.1842 5.03078 81.0374 4.73722C80.8907 4.44366 80.6965 4.19271 80.455 3.98438C80.2136 3.77604 79.9271 3.61742 79.5957 3.50852C79.269 3.39489 78.9067 3.33807 78.509 3.33807C77.8035 3.33807 77.1951 3.51089 76.6837 3.85653C76.1771 4.20218 75.7865 4.7017 75.5119 5.35511C75.242 6.00852 75.107 6.79924 75.107 7.72727C75.107 8.69318 75.2443 9.50284 75.519 10.1562C75.7983 10.8049 76.1889 11.295 76.6908 11.6264C77.1975 11.9531 77.7964 12.1165 78.4877 12.1165C78.876 12.1165 79.2287 12.0668 79.546 11.9673C79.8679 11.8679 80.1496 11.7235 80.3911 11.5341C80.6373 11.34 80.8386 11.1056 80.9948 10.831C81.1558 10.5516 81.2671 10.2367 81.3286 9.88636L84.8798 9.90767C84.8182 10.5516 84.6312 11.1861 84.3187 11.8111C84.0109 12.4361 83.5871 13.0066 83.0474 13.5227C82.5076 14.0341 81.8495 14.4413 81.0729 14.7443C80.3012 15.0473 79.4157 15.1989 78.4167 15.1989C77.1004 15.1989 75.9214 14.91 74.8798 14.3324C73.8428 13.75 73.0237 12.9025 72.4224 11.7898C71.821 10.6771 71.5204 9.32292 71.5204 7.72727C71.5204 6.12689 71.8258 4.77036 72.4366 3.65767C73.0474 2.54498 73.8736 1.69981 74.9153 1.12216C75.9569 0.544507 77.1241 0.255681 78.4167 0.255681C79.2974 0.255681 80.1118 0.378788 80.8599 0.625C81.608 0.866477 82.2661 1.22159 82.8343 1.69034C83.4025 2.15436 83.8641 2.72491 84.2192 3.40199C84.5744 4.07907 84.7945 4.85322 84.8798 5.72443ZM86.2915 15V0.454545H89.8071V6.29261H95.5386V0.454545H99.0472V15H95.5386V9.15483H89.8071V15H86.2915ZM114.381 7.72727C114.381 9.32765 114.073 10.6842 113.458 11.7969C112.842 12.9096 112.009 13.7547 110.958 14.3324C109.911 14.91 108.737 15.1989 107.435 15.1989C106.128 15.1989 104.952 14.9077 103.905 14.3253C102.859 13.7429 102.028 12.8977 101.412 11.7898C100.802 10.6771 100.496 9.32292 100.496 7.72727C100.496 6.12689 100.802 4.77036 101.412 3.65767C102.028 2.54498 102.859 1.69981 103.905 1.12216C104.952 0.544507 106.128 0.255681 107.435 0.255681C108.737 0.255681 109.911 0.544507 110.958 1.12216C112.009 1.69981 112.842 2.54498 113.458 3.65767C114.073 4.77036 114.381 6.12689 114.381 7.72727ZM110.787 7.72727C110.787 6.7803 110.652 5.98011 110.383 5.3267C110.117 4.67329 109.734 4.1785 109.232 3.84233C108.735 3.50615 108.136 3.33807 107.435 3.33807C106.739 3.33807 106.14 3.50615 105.638 3.84233C105.136 4.1785 104.75 4.67329 104.481 5.3267C104.215 5.98011 104.083 6.7803 104.083 7.72727C104.083 8.67424 104.215 9.47443 104.481 10.1278C104.75 10.7812 105.136 11.276 105.638 11.6122C106.14 11.9484 106.739 12.1165 107.435 12.1165C108.136 12.1165 108.735 11.9484 109.232 11.6122C109.734 11.276 110.117 10.7812 110.383 10.1278C110.652 9.47443 110.787 8.67424 110.787 7.72727Z" fill="#0D134E"/>
<path d="M5.47727 15H0.100852V0.454545H5.47017C6.95218 0.454545 8.22822 0.745738 9.2983 1.32812C10.3731 1.90578 11.2017 2.73911 11.7841 3.82812C12.3665 4.91241 12.6577 6.20975 12.6577 7.72017C12.6577 9.23532 12.3665 10.5374 11.7841 11.6264C11.2064 12.7154 10.3802 13.5511 9.3054 14.1335C8.23059 14.7112 6.95455 15 5.47727 15ZM3.61648 12.0028H5.34233C6.15672 12.0028 6.84564 11.8655 7.40909 11.5909C7.97727 11.3116 8.40578 10.8594 8.6946 10.2344C8.98816 9.60464 9.13494 8.76657 9.13494 7.72017C9.13494 6.67377 8.98816 5.84044 8.6946 5.22017C8.40104 4.59517 7.9678 4.14536 7.39489 3.87074C6.8267 3.59138 6.12595 3.4517 5.29261 3.4517H3.61648V12.0028ZM27.8389 7.72727C27.8389 9.32765 27.5312 10.6842 26.9156 11.7969C26.3001 12.9096 25.4668 13.7547 24.4156 14.3324C23.3692 14.91 22.195 15.1989 20.8929 15.1989C19.5861 15.1989 18.4095 14.9077 17.3631 14.3253C16.3167 13.7429 15.4857 12.8977 14.8702 11.7898C14.2594 10.6771 13.954 9.32292 13.954 7.72727C13.954 6.12689 14.2594 4.77036 14.8702 3.65767C15.4857 2.54498 16.3167 1.69981 17.3631 1.12216C18.4095 0.544507 19.5861 0.255681 20.8929 0.255681C22.195 0.255681 23.3692 0.544507 24.4156 1.12216C25.4668 1.69981 26.3001 2.54498 26.9156 3.65767C27.5312 4.77036 27.8389 6.12689 27.8389 7.72727ZM24.2452 7.72727C24.2452 6.7803 24.1102 5.98011 23.8403 5.3267C23.5752 4.67329 23.1917 4.1785 22.6898 3.84233C22.1926 3.50615 21.5937 3.33807 20.8929 3.33807C20.1969 3.33807 19.5979 3.50615 19.096 3.84233C18.5941 4.1785 18.2082 4.67329 17.9384 5.3267C17.6732 5.98011 17.5406 6.7803 17.5406 7.72727C17.5406 8.67424 17.6732 9.47443 17.9384 10.1278C18.2082 10.7812 18.5941 11.276 19.096 11.6122C19.5979 11.9484 20.1969 12.1165 20.8929 12.1165C21.5937 12.1165 22.1926 11.9484 22.6898 11.6122C23.1917 11.276 23.5752 10.7812 23.8403 10.1278C24.1102 9.47443 24.2452 8.67424 24.2452 7.72727ZM41.6707 0.454545V15H38.6878L32.8994 6.60511H32.8071V15H29.2915V0.454545H32.317L38.0415 8.83523H38.1622V0.454545H41.6707ZM46.9782 15V0.454545H50.4938V12.1449H56.545V15H46.9782ZM66.5646 0.454545H70.0732V9.83665C70.0732 10.9209 69.8151 11.8655 69.299 12.6705C68.7829 13.4706 68.0632 14.0909 67.1399 14.5312C66.2166 14.9669 65.1442 15.1847 63.9226 15.1847C62.6868 15.1847 61.6072 14.9669 60.6839 14.5312C59.7607 14.0909 59.0433 13.4706 58.532 12.6705C58.0206 11.8655 57.7649 10.9209 57.7649 9.83665V0.454545H61.2805V9.53125C61.2805 10.0331 61.3894 10.4806 61.6072 10.8736C61.8298 11.2666 62.1399 11.5743 62.5376 11.7969C62.9354 12.0194 63.397 12.1307 63.9226 12.1307C64.4482 12.1307 64.9074 12.0194 65.3004 11.7969C65.6982 11.5743 66.0083 11.2666 66.2308 10.8736C66.4534 10.4806 66.5646 10.0331 66.5646 9.53125V0.454545ZM84.8798 5.72443H81.3286C81.2813 5.35985 81.1842 5.03078 81.0374 4.73722C80.8907 4.44366 80.6965 4.19271 80.455 3.98438C80.2136 3.77604 79.9271 3.61742 79.5957 3.50852C79.269 3.39489 78.9067 3.33807 78.509 3.33807C77.8035 3.33807 77.1951 3.51089 76.6837 3.85653C76.1771 4.20218 75.7865 4.7017 75.5119 5.35511C75.242 6.00852 75.107 6.79924 75.107 7.72727C75.107 8.69318 75.2443 9.50284 75.519 10.1562C75.7983 10.8049 76.1889 11.295 76.6908 11.6264C77.1975 11.9531 77.7964 12.1165 78.4877 12.1165C78.876 12.1165 79.2287 12.0668 79.546 11.9673C79.8679 11.8679 80.1496 11.7235 80.3911 11.5341C80.6373 11.34 80.8386 11.1056 80.9948 10.831C81.1558 10.5516 81.2671 10.2367 81.3286 9.88636L84.8798 9.90767C84.8182 10.5516 84.6312 11.1861 84.3187 11.8111C84.0109 12.4361 83.5871 13.0066 83.0474 13.5227C82.5076 14.0341 81.8495 14.4413 81.0729 14.7443C80.3012 15.0473 79.4157 15.1989 78.4167 15.1989C77.1004 15.1989 75.9214 14.91 74.8798 14.3324C73.8428 13.75 73.0237 12.9025 72.4224 11.7898C71.821 10.6771 71.5204 9.32292 71.5204 7.72727C71.5204 6.12689 71.8258 4.77036 72.4366 3.65767C73.0474 2.54498 73.8736 1.69981 74.9153 1.12216C75.9569 0.544507 77.1241 0.255681 78.4167 0.255681C79.2974 0.255681 80.1118 0.378788 80.8599 0.625C81.608 0.866477 82.2661 1.22159 82.8343 1.69034C83.4025 2.15436 83.8641 2.72491 84.2192 3.40199C84.5744 4.07907 84.7945 4.85322 84.8798 5.72443ZM86.2915 15V0.454545H89.8071V6.29261H95.5386V0.454545H99.0472V15H95.5386V9.15483H89.8071V15H86.2915ZM114.381 7.72727C114.381 9.32765 114.073 10.6842 113.458 11.7969C112.842 12.9096 112.009 13.7547 110.958 14.3324C109.911 14.91 108.737 15.1989 107.435 15.1989C106.128 15.1989 104.952 14.9077 103.905 14.3253C102.859 13.7429 102.028 12.8977 101.412 11.7898C100.802 10.6771 100.496 9.32292 100.496 7.72727C100.496 6.12689 100.802 4.77036 101.412 3.65767C102.028 2.54498 102.859 1.69981 103.905 1.12216C104.952 0.544507 106.128 0.255681 107.435 0.255681C108.737 0.255681 109.911 0.544507 110.958 1.12216C112.009 1.69981 112.842 2.54498 113.458 3.65767C114.073 4.77036 114.381 6.12689 114.381 7.72727ZM110.787 7.72727C110.787 6.7803 110.652 5.98011 110.383 5.3267C110.117 4.67329 109.734 4.1785 109.232 3.84233C108.735 3.50615 108.136 3.33807 107.435 3.33807C106.739 3.33807 106.14 3.50615 105.638 3.84233C105.136 4.1785 104.75 4.67329 104.481 5.3267C104.215 5.98011 104.083 6.7803 104.083 7.72727C104.083 8.67424 104.215 9.47443 104.481 10.1278C104.75 10.7812 105.136 11.276 105.638 11.6122C106.14 11.9484 106.739 12.1165 107.435 12.1165C108.136 12.1165 108.735 11.9484 109.232 11.6122C109.734 11.276 110.117 10.7812 110.383 10.1278C110.652 9.47443 110.787 8.67424 110.787 7.72727Z" fill="black" fill-opacity="0.2"/>
</svg>
